<svg width="128" height="16" viewBox="0 0 128 16" fill="none" xmlns="http://www.w3.org/2000/svg">
<path d="M0 0V12.0116H1.42996V10.8508H1.4636C1.62062 11.1088 1.81128 11.3275 2.03558 11.5069C2.27111 11.6752 2.51784 11.8098 2.7758 11.9107C3.03375 12.0116 3.2917 12.0845 3.54966 12.1294C3.81882 12.1743 4.05995 12.1967 4.27305 12.1967C4.93475 12.1967 5.51234 12.0789 6.00582 11.8434C6.51051 11.6079 6.92547 11.2882 7.25072 10.8845C7.58718 10.4695 7.83392 9.98726 7.99093 9.43771C8.15916 8.88816 8.24328 8.30496 8.24328 7.68812C8.24328 7.07127 8.15916 6.48808 7.99093 5.93852C7.8227 5.38897 7.57036 4.90671 7.2339 4.49174C6.90865 4.06556 6.49368 3.7291 5.98899 3.48236C5.49552 3.23563 4.91232 3.11226 4.2394 3.11226C3.63377 3.11226 3.07861 3.22441 2.57392 3.44872C2.06923 3.66181 1.69912 4.00948 1.4636 4.49174H1.42996V0H0ZM6.72921 7.58718C6.72921 8.01336 6.68434 8.42833 6.59462 8.83208C6.5049 9.23584 6.3591 9.59473 6.15722 9.90876C5.95535 10.2228 5.68618 10.4751 5.34972 10.6658C5.02447 10.8565 4.61511 10.9518 4.12164 10.9518C3.62816 10.9518 3.20759 10.8621 2.85991 10.6826C2.51224 10.492 2.22625 10.2452 2.00194 9.9424C1.78885 9.63959 1.63183 9.29191 1.53089 8.89937C1.42996 8.49562 1.37949 8.08066 1.37949 7.65447C1.37949 7.25072 1.42435 6.85257 1.51407 6.46004C1.61501 6.0675 1.77202 5.71983 1.98512 5.41701C2.19821 5.10298 2.47298 4.85064 2.80944 4.65998C3.1459 4.46931 3.55526 4.37398 4.03752 4.37398C4.49735 4.37398 4.8955 4.46371 5.23196 4.64315C5.57963 4.8226 5.86002 5.06373 6.07311 5.36654C6.29742 5.66936 6.46004 6.01703 6.56098 6.40957C6.67313 6.79089 6.72921 7.18343 6.72921 7.58718Z" fill="white"/>
<path d="M10.9648 7.67129C10.9648 7.14417 11.0321 6.67874 11.1667 6.27499C11.3125 5.86002 11.5087 5.51234 11.7555 5.23196C12.0022 4.95157 12.2882 4.73848 12.6135 4.59268C12.9499 4.44688 13.3032 4.37398 13.6733 4.37398C14.0434 4.37398 14.3911 4.44688 14.7163 4.59268C15.0528 4.73848 15.3444 4.95157 15.5911 5.23196C15.8379 5.51234 16.0285 5.86002 16.1631 6.27499C16.3089 6.67874 16.3818 7.14417 16.3818 7.67129C16.3818 8.19842 16.3089 8.66946 16.1631 9.08443C16.0285 9.48818 15.8379 9.83025 15.5911 10.1106C15.3444 10.3798 15.0528 10.5873 14.7163 10.7331C14.3911 10.8789 14.0434 10.9518 13.6733 10.9518C13.3032 10.9518 12.9499 10.8789 12.6135 10.7331C12.2882 10.5873 12.0022 10.3798 11.7555 10.1106C11.5087 9.83025 11.3125 9.48818 11.1667 9.08443C11.0321 8.66946 10.9648 8.19842 10.9648 7.67129ZM9.45072 7.67129C9.45072 8.31057 9.54045 8.90498 9.71989 9.45453C9.89934 10.0041 10.1685 10.4863 10.5274 10.9013C10.8863 11.3051 11.3293 11.6247 11.8564 11.8602C12.3835 12.0845 12.9892 12.1967 13.6733 12.1967C14.3687 12.1967 14.9743 12.0845 15.4902 11.8602C16.0173 11.6247 16.4603 11.3051 16.8192 10.9013C17.1781 10.4863 17.4473 10.0041 17.6267 9.45453C17.8062 8.90498 17.8959 8.31057 17.8959 7.67129C17.8959 7.03202 17.8062 6.43761 17.6267 5.88805C17.4473 5.32729 17.1781 4.84503 16.8192 4.44128C16.4603 4.02631 16.0173 3.70106 15.4902 3.46554C14.9743 3.23002 14.3687 3.11226 13.6733 3.11226C12.9892 3.11226 12.3835 3.23002 11.8564 3.46554C11.3293 3.70106 10.8863 4.02631 10.5274 4.44128C10.1685 4.84503 9.89934 5.32729 9.71989 5.88805C9.54045 6.43761 9.45072 7.03202 9.45072 7.67129Z" fill="white"/>
<path d="M20.6249 7.73859C20.6249 7.3124 20.6697 6.89744 20.7595 6.49368C20.8492 6.08993 20.995 5.73104 21.1969 5.41701C21.3987 5.10298 21.6679 4.85064 22.0044 4.65998C22.3408 4.46931 22.7502 4.37398 23.2325 4.37398C23.7259 4.37398 24.1465 4.46931 24.4942 4.65998C24.8419 4.83942 25.1222 5.08055 25.3353 5.38337C25.5596 5.68618 25.7223 6.03946 25.8232 6.44321C25.9241 6.83575 25.9746 7.24511 25.9746 7.67129C25.9746 8.07505 25.9241 8.47319 25.8232 8.86573C25.7335 9.25827 25.5821 9.61155 25.369 9.92558C25.1559 10.2284 24.8811 10.4751 24.5446 10.6658C24.2082 10.8565 23.7988 10.9518 23.3166 10.9518C22.8567 10.9518 22.453 10.8621 22.1053 10.6826C21.7689 10.5032 21.4885 10.262 21.2642 9.95922C21.0511 9.65641 20.8884 9.31434 20.7763 8.93302C20.6754 8.54048 20.6249 8.14234 20.6249 7.73859ZM27.3541 12.0116V0H25.9241V4.47492H25.8905C25.7335 4.21697 25.5372 4.00388 25.3017 3.83565C25.0774 3.6562 24.8362 3.51601 24.5783 3.41507C24.3203 3.30292 24.0624 3.22441 23.8044 3.17955C23.5465 3.13469 23.3054 3.11226 23.081 3.11226C22.4193 3.11226 21.8361 3.23563 21.3315 3.48236C20.838 3.71789 20.423 4.04313 20.0865 4.4581C19.7613 4.86185 19.5146 5.3385 19.3463 5.88805C19.1893 6.43761 19.1108 7.02081 19.1108 7.63765C19.1108 8.25449 19.1949 8.83769 19.3632 9.38724C19.5314 9.93679 19.7781 10.4191 20.1034 10.834C20.4398 11.249 20.8548 11.5798 21.3483 11.8266C21.853 12.0733 22.4418 12.1967 23.1147 12.1967C23.7203 12.1967 24.2755 12.0901 24.7802 11.877C25.2849 11.664 25.655 11.3163 25.8905 10.834H25.9241V12.0116H27.3541Z" fill="white"/>
<path d="M32.9692 13.1724C32.8009 13.5986 32.6327 13.9575 32.4645 14.2491C32.3075 14.5407 32.128 14.7762 31.9261 14.9557C31.7355 15.1463 31.5168 15.2809 31.27 15.3594C31.0345 15.4491 30.7597 15.494 30.4457 15.494C30.2775 15.494 30.1093 15.4828 29.941 15.4604C29.7728 15.4379 29.6102 15.3987 29.4532 15.3426V14.0304C29.5765 14.0865 29.7167 14.1313 29.8737 14.165C30.042 14.2098 30.1822 14.2323 30.2943 14.2323C30.5859 14.2323 30.827 14.1594 31.0177 14.0136C31.2196 13.879 31.371 13.6827 31.4719 13.4248L32.0607 11.9612L28.612 3.31413H30.227L32.7673 10.4303H32.8009L35.2403 3.31413H36.7543L32.9692 13.1724Z" fill="white"/>
<path d="M37.0367 10.1443V12.0116H38.904V10.1443H37.0367Z" fill="white"/>
<path d="M46.0814 3.31413V12.0116H47.5113V6.59462C47.5113 6.42639 47.5506 6.21891 47.6291 5.97217C47.7188 5.71422 47.8534 5.46748 48.0329 5.23196C48.2235 4.99644 48.4647 4.79456 48.7563 4.62633C49.0591 4.4581 49.418 4.37398 49.8329 4.37398C50.1582 4.37398 50.4217 4.42445 50.6236 4.52539C50.8367 4.61511 51.0049 4.7497 51.1283 4.92914C51.2517 5.09737 51.3358 5.29925 51.3806 5.53477C51.4367 5.77029 51.4648 6.02825 51.4648 6.30863V12.0116H52.8947V6.59462C52.8947 5.9217 53.0966 5.38337 53.5003 4.97961C53.9041 4.57586 54.4593 4.37398 55.1658 4.37398C55.5135 4.37398 55.7939 4.42445 56.007 4.52539C56.2313 4.62633 56.4051 4.76652 56.5285 4.94597C56.6519 5.1142 56.736 5.31607 56.7808 5.5516C56.8257 5.78712 56.8481 6.03946 56.8481 6.30863V12.0116H58.2781V5.63571C58.2781 5.1871 58.2052 4.80577 58.0594 4.49174C57.9248 4.1665 57.7285 3.90294 57.4706 3.70106C57.2238 3.49919 56.921 3.35339 56.5621 3.26366C56.2145 3.16273 55.8219 3.11226 55.3845 3.11226C54.8125 3.11226 54.2854 3.24123 53.8032 3.49919C53.3321 3.75714 52.9508 4.12164 52.6592 4.59268C52.4797 4.05435 52.1713 3.67303 51.7339 3.44872C51.2965 3.22441 50.8087 3.11226 50.2703 3.11226C49.0478 3.11226 48.1114 3.60573 47.4609 4.59268H47.4272V3.31413H46.0814Z" fill="white"/>
<path d="M61.9377 1.74959V0H60.5078V1.74959H61.9377ZM60.5078 3.31413V12.0116H61.9377V3.31413H60.5078Z" fill="white"/>
<path d="M64.153 3.31413V12.0116H65.5829V7.09931C65.5829 6.70677 65.6334 6.34788 65.7343 6.02264C65.8465 5.68618 66.0091 5.39458 66.2222 5.14784C66.4353 4.9011 66.6989 4.71044 67.0129 4.57586C67.3381 4.44128 67.7195 4.37398 68.1569 4.37398C68.7064 4.37398 69.1382 4.531 69.4522 4.84503C69.7663 5.15906 69.9233 5.58524 69.9233 6.12358V12.0116H71.3532V6.29181C71.3532 5.82076 71.3028 5.39458 71.2018 5.01326C71.1121 4.62072 70.9495 4.28426 70.714 4.00388C70.4784 3.72349 70.17 3.50479 69.7887 3.34778C69.4074 3.19077 68.9307 3.11226 68.3587 3.11226C67.069 3.11226 66.1269 3.63938 65.5325 4.69362H65.4988V3.31413H64.153Z" fill="white"/>
<path d="M74.544 7.73859C74.544 7.3124 74.5888 6.89744 74.6785 6.49368C74.7683 6.08993 74.9141 5.73104 75.1159 5.41701C75.3178 5.10298 75.587 4.85064 75.9235 4.65998C76.2599 4.46931 76.6693 4.37398 77.1515 4.37398C77.645 4.37398 78.0656 4.46931 78.4133 4.65998C78.7609 4.83942 79.0413 5.08055 79.2544 5.38337C79.4787 5.68618 79.6413 6.03946 79.7423 6.44321C79.8432 6.83575 79.8937 7.24511 79.8937 7.67129C79.8937 8.07505 79.8432 8.47319 79.7423 8.86573C79.6526 9.25827 79.5011 9.61155 79.288 9.92558C79.075 10.2284 78.8002 10.4751 78.4637 10.6658C78.1273 10.8565 77.7179 10.9518 77.2356 10.9518C76.7758 10.9518 76.3721 10.8621 76.0244 10.6826C75.6879 10.5032 75.4075 10.262 75.1832 9.95922C74.9701 9.65641 74.8075 9.31434 74.6954 8.93302C74.5944 8.54048 74.544 8.14234 74.544 7.73859ZM81.2732 12.0116V0H79.8432V4.47492H79.8096C79.6525 4.21697 79.4563 4.00388 79.2208 3.83565C78.9965 3.6562 78.7553 3.51601 78.4974 3.41507C78.2394 3.30292 77.9815 3.22441 77.7235 3.17955C77.4656 3.13469 77.2244 3.11226 77.0001 3.11226C76.3384 3.11226 75.7552 3.23563 75.2505 3.48236C74.7571 3.71789 74.3421 4.04313 74.0056 4.4581C73.6804 4.86185 73.4336 5.3385 73.2654 5.88805C73.1084 6.43761 73.0299 7.02081 73.0299 7.63765C73.0299 8.25449 73.114 8.83769 73.2822 9.38724C73.4505 9.93679 73.6972 10.4191 74.0224 10.834C74.3589 11.249 74.7739 11.5798 75.2674 11.8266C75.772 12.0733 76.3608 12.1967 77.0338 12.1967C77.6394 12.1967 78.1946 12.0901 78.6992 11.877C79.2039 11.664 79.574 11.3163 79.8096 10.834H79.8432V12.0116H81.2732Z" fill="white"/>
<path d="M83.7928 10.1443V12.0116H85.6602V10.1443H83.7928Z" fill="white"/>
<path d="M93.7123 9.26948H92.2824C92.3048 9.80782 92.417 10.2676 92.6188 10.649C92.8207 11.0191 93.0899 11.3219 93.4263 11.5574C93.7628 11.7817 94.1497 11.9443 94.5871 12.0453C95.0245 12.1462 95.4844 12.1967 95.9666 12.1967C96.404 12.1967 96.8414 12.1518 97.2788 12.0621C97.7274 11.9836 98.1256 11.8378 98.4733 11.6247C98.8321 11.4116 99.1181 11.1312 99.3312 10.7836C99.5555 10.4359 99.6677 9.99848 99.6677 9.47136C99.6677 9.05639 99.5836 8.70871 99.4153 8.42833C99.2583 8.14795 99.0452 7.91803 98.7761 7.73859C98.5181 7.54793 98.2153 7.39652 97.8676 7.28437C97.5312 7.17221 97.1835 7.07688 96.8246 6.99837C96.4881 6.91987 96.1517 6.84697 95.8152 6.77967C95.4788 6.70117 95.1759 6.61145 94.9068 6.51051C94.6376 6.39835 94.4133 6.26377 94.2339 6.10675C94.0656 5.93852 93.9815 5.73104 93.9815 5.4843C93.9815 5.26 94.0376 5.08055 94.1497 4.94597C94.2619 4.80017 94.4077 4.68801 94.5871 4.60951C94.7666 4.51978 94.9628 4.4581 95.1759 4.42445C95.4002 4.39081 95.6189 4.37398 95.832 4.37398C96.0676 4.37398 96.2975 4.40202 96.5218 4.4581C96.7573 4.50296 96.9704 4.58147 97.1611 4.69362C97.3517 4.80577 97.5087 4.95718 97.6321 5.14784C97.7555 5.32729 97.8284 5.5572 97.8508 5.83759H99.2808C99.2471 5.31046 99.135 4.87307 98.9443 4.52539C98.7536 4.1665 98.4957 3.88612 98.1704 3.68424C97.8564 3.47115 97.4919 3.32535 97.0769 3.24684C96.662 3.15712 96.2078 3.11226 95.7143 3.11226C95.333 3.11226 94.946 3.16273 94.5535 3.26366C94.1722 3.35339 93.8245 3.49919 93.5105 3.70106C93.2076 3.89172 92.9553 4.14407 92.7534 4.4581C92.5628 4.77213 92.4674 5.14784 92.4674 5.58524C92.4674 6.14601 92.6076 6.58341 92.888 6.89744C93.1684 7.21147 93.5161 7.4582 93.931 7.63765C94.3572 7.80588 94.817 7.94046 95.3105 8.0414C95.804 8.13112 96.2582 8.23767 96.6732 8.36104C97.0994 8.47319 97.4527 8.6246 97.733 8.81526C98.0134 9.00592 98.1536 9.2863 98.1536 9.65641C98.1536 9.92558 98.0863 10.1499 97.9517 10.3293C97.8172 10.4976 97.6433 10.6265 97.4302 10.7163C97.2284 10.806 97.004 10.8677 96.7573 10.9013C96.5106 10.935 96.275 10.9518 96.0507 10.9518C95.7591 10.9518 95.4732 10.9237 95.1928 10.8677C94.9236 10.8116 94.6769 10.7219 94.4526 10.5985C94.2395 10.4639 94.0656 10.2901 93.931 10.077C93.7965 9.85268 93.7236 9.58351 93.7123 9.26948Z" fill="white"/>
<path d="M101.3 3.31413V15.3258H102.729V10.8508H102.763C102.92 11.1088 103.111 11.3275 103.335 11.5069C103.571 11.6752 103.817 11.8098 104.075 11.9107C104.333 12.0116 104.591 12.0845 104.849 12.1294C105.118 12.1743 105.359 12.1967 105.573 12.1967C106.234 12.1967 106.812 12.0789 107.305 11.8434C107.81 11.6079 108.225 11.2882 108.55 10.8845C108.887 10.4695 109.133 9.98726 109.29 9.43771C109.459 8.88816 109.543 8.30496 109.543 7.68812C109.543 7.07127 109.459 6.48808 109.29 5.93852C109.122 5.38897 108.87 4.90671 108.533 4.49174C108.208 4.06556 107.793 3.7291 107.289 3.48236C106.795 3.23563 106.212 3.11226 105.539 3.11226C104.933 3.11226 104.378 3.22441 103.873 3.44872C103.369 3.66181 102.999 4.00948 102.763 4.49174H102.729V3.31413H101.3ZM108.029 7.58718C108.029 8.01336 107.984 8.42833 107.894 8.83208C107.804 9.23584 107.659 9.59473 107.457 9.90876C107.255 10.2228 106.986 10.4751 106.649 10.6658C106.324 10.8565 105.915 10.9518 105.421 10.9518C104.928 10.9518 104.507 10.8621 104.159 10.6826C103.812 10.492 103.526 10.2452 103.301 9.9424C103.088 9.63959 102.931 9.29191 102.83 8.89937C102.729 8.49562 102.679 8.08066 102.679 7.65447C102.679 7.25072 102.724 6.85257 102.814 6.46004C102.915 6.0675 103.072 5.71983 103.285 5.41701C103.498 5.10298 103.772 4.85064 104.109 4.65998C104.445 4.46931 104.855 4.37398 105.337 4.37398C105.797 4.37398 106.195 4.46371 106.531 4.64315C106.879 4.8226 107.16 5.06373 107.373 5.36654C107.597 5.66936 107.76 6.01703 107.86 6.40957C107.973 6.79089 108.029 7.18343 108.029 7.58718Z" fill="white"/>
<path d="M112.735 1.74959V0H111.305V1.74959H112.735ZM111.305 3.31413V12.0116H112.735V3.31413H111.305Z" fill="white"/>
<path d="M114.9 3.31413V12.0116H116.33V8.14234C116.33 7.58157 116.386 7.0881 116.498 6.66191C116.61 6.22452 116.79 5.85441 117.037 5.5516C117.283 5.24878 117.609 5.01887 118.012 4.86185C118.416 4.70484 118.904 4.62633 119.476 4.62633V3.11226C118.702 3.08983 118.063 3.24684 117.558 3.5833C117.053 3.91976 116.627 4.44128 116.28 5.14784H116.246V3.31413H114.9Z" fill="white"/>
<path d="M122.067 1.74959V0H120.637V1.74959H122.067ZM120.637 3.31413V12.0116H122.067V3.31413H120.637Z" fill="white"/>
<path d="M126.267 3.31413V0.706567H124.837V3.31413H123.357V4.57586H124.837V10.1106C124.837 10.5144 124.877 10.8396 124.955 11.0864C125.034 11.3331 125.151 11.5238 125.308 11.6583C125.477 11.7929 125.69 11.8883 125.948 11.9443C126.217 11.9892 126.536 12.0116 126.907 12.0116H128V10.7499H127.344C127.12 10.7499 126.935 10.7443 126.789 10.7331C126.654 10.7107 126.548 10.6714 126.469 10.6153C126.391 10.5592 126.335 10.4807 126.301 10.3798C126.278 10.2789 126.267 10.1443 126.267 9.97605V4.57586H128V3.31413H126.267Z" fill="white"/>
</svg>
